<svg width="16" height="16" viewBox="0 0 16 16" fill="none" xmlns="http://www.w3.org/2000/svg">
<g clip-path="url(#clip0)">
<path d="M15.5897 12.9809L3.05051 0.441647C2.50364 -0.105223 1.61703 -0.105223 1.07101 0.441647L0.410153 1.10148C-0.136718 1.64852 -0.136718 2.53514 0.410153 3.08115L12.9494 15.6204C13.4964 16.1672 14.383 16.1672 14.9291 15.6204L15.5889 14.9605C16.1368 14.4145 16.1368 13.5277 15.5897 12.9809Z" fill="#F44336"/>
<path d="M12.9494 0.441763L0.410152 12.981C-0.136717 13.5279 -0.136717 14.4146 0.410152 14.9607L1.06998 15.6205C1.61702 16.1674 2.50364 16.1674 3.04965 15.6205L15.5897 3.08212C16.1368 2.53525 16.1368 1.64864 15.5897 1.10262L14.9299 0.442788C14.383 -0.105107 13.4964 -0.105107 12.9494 0.441763Z" fill="#F44336"/>
</g>
<defs>
<clipPath id="clip0">
<rect width="16" height="16" fill="white"/>
</clipPath>
</defs>
</svg>
